<?xml version="1.0" standalone="no"?>
<!DOCTYPE svg PUBLIC "-//W3C//DTD SVG 20010904//EN"
 "http://www.w3.org/TR/2001/REC-SVG-20010904/DTD/svg10.dtd">
<svg version="1.0" xmlns="http://www.w3.org/2000/svg"
 width="511.000000pt" height="488.000000pt" viewBox="0 0 511.000000 488.000000"
 preserveAspectRatio="xMidYMid meet">

<g transform="translate(0.000000,488.000000) scale(0.100000,-0.100000)"
fill="#000000" stroke="none">
<path d="M2435 4189 c-1057 -91 -1864 -965 -1822 -1974 15 -367 130 -699 349
-1010 84 -119 318 -353 435 -435 311 -217 626 -338 992 -380 136 -16 445 -8
571 15 588 106 1081 431 1377 906 483 774 330 1778 -363 2379 -331 287 -748
461 -1197 499 -143 12 -196 12 -342 0z m66 -71 c65 -30 130 -92 161 -156 33
-67 33 -216 1 -282 -42 -84 -161 -180 -226 -180 -10 0 -21 -10 -26 -22 -9 -25
-61 -530 -61 -588 0 -27 18 -62 78 -150 l77 -116 40 15 c62 22 170 18 237 -8
78 -30 154 -101 189 -176 16 -33 29 -66 29 -72 0 -10 29 -14 105 -15 58 -1
119 -2 135 -2 24 -1 81 36 270 174 237 173 240 175 233 205 -4 17 -8 68 -8
115 0 73 4 93 28 141 81 166 281 239 445 165 80 -37 152 -113 182 -194 31 -80
25 -195 -14 -270 -53 -105 -152 -174 -267 -188 -97 -11 -169 12 -275 91 -19
14 -31 7 -227 -138 -113 -83 -207 -155 -207 -159 0 -6 394 -312 428 -332 8 -5
31 9 63 38 121 109 300 107 423 -4 149 -137 149 -363 0 -500 -83 -75 -183
-102 -285 -76 -108 28 -203 107 -246 206 -15 35 -22 139 -13 195 5 29 -4 36
-238 216 -273 209 -251 199 -438 199 l-92 0 -11 -44 c-24 -97 -125 -199 -228
-231 -50 -16 -141 -17 -227 -3 -14 2 -35 -27 -97 -142 l-78 -146 15 -109 c38
-282 54 -403 59 -432 5 -28 12 -34 48 -44 100 -27 182 -95 225 -187 23 -48 27
-71 27 -142 0 -102 -28 -173 -95 -240 -67 -67 -138 -95 -240 -95 -76 0 -93 3
-152 33 -67 33 -118 82 -151 147 -23 46 -40 149 -33 197 16 107 98 219 195
264 31 15 57 27 59 29 1 1 -4 49 -12 106 -9 57 -25 171 -36 253 -11 83 -21
151 -23 152 -1 1 -112 -47 -247 -108 l-246 -110 10 -58 c17 -103 -35 -232
-117 -294 -74 -55 -117 -70 -207 -71 -71 0 -94 4 -140 26 -78 36 -124 80 -159
150 -43 85 -48 151 -21 240 67 223 356 304 532 150 l43 -39 271 121 271 121
84 144 c46 80 85 148 87 153 2 4 -12 28 -31 53 -97 126 -98 295 -3 420 l33 42
-91 134 -91 135 -276 128 -275 128 -34 -31 c-19 -17 -57 -44 -84 -58 -45 -24
-62 -27 -146 -27 -81 0 -103 4 -145 24 -111 55 -178 158 -179 277 -1 62 3 79
34 140 121 237 474 231 586 -10 19 -40 24 -68 24 -131 l0 -80 246 -113 c135
-63 248 -111 251 -108 5 5 11 57 38 331 21 216 24 201 -35 226 -65 28 -152
120 -174 185 -21 63 -21 166 1 228 20 55 99 148 147 173 95 50 204 54 297 11z"/>
</g>
</svg>
