<?xml version="1.0" encoding="UTF-8" standalone="no"?>
<!DOCTYPE svg PUBLIC "-//W3C//DTD SVG 1.1//EN" "http://www.w3.org/Graphics/SVG/1.1/DTD/svg11.dtd">
<svg width="100%" height="100%" viewBox="0 0 331 373" version="1.1" xmlns="http://www.w3.org/2000/svg" xmlns:xlink="http://www.w3.org/1999/xlink" xml:space="preserve" xmlns:serif="http://www.serif.com/" style="fill-rule:evenodd;clip-rule:evenodd;stroke-linejoin:round;stroke-miterlimit:2;">
    <g transform="matrix(1,0,0,1,-0.777133,-0.615488)">
        <g transform="matrix(1,0,0,1,-107,-72)">
            <path d="M258.887,80.465C265.59,86.645 269.379,94.464 270.239,103.508C270.516,113.308 268.211,120.806 261.875,128.375C255.787,134.685 249.575,137.652 241,139L240.854,142.05C240.244,153.91 239.021,165.654 237.654,177.447C237.379,179.839 237.109,182.232 236.84,184.625L236.584,186.775C235.111,196.867 235.111,196.867 238.047,206.203L239.36,208.235L240.75,210.25L242.094,212.313C244.054,215.288 246.077,218.093 248.328,220.86C250,223 250,223 250,225L253.688,223.5C263.708,220.212 273.651,221.296 283,226C291.294,230.867 296.817,237.98 300,247L300,250C318.163,252.911 318.163,252.911 334.626,246.57C337.524,244.074 340.343,241.487 343.076,238.811C345.88,236.172 348.947,234.035 352.126,231.875C353.238,231.092 354.348,230.307 355.457,229.52L357.163,228.311C360.734,225.757 364.284,223.174 367.813,220.563L369.936,219.021L371.895,217.567L373.64,216.284C375.285,214.934 375.285,214.934 376,212L375.563,209.875C373.92,201.478 374.987,193.286 379.254,185.801C383.844,179.234 390.982,172.748 399,171.001C409.163,169.995 417.39,170.861 425.696,176.988C432.522,182.75 436.548,188.152 438,197C438.802,207.17 437.143,215.204 430.66,223.215C425.042,229.256 418.284,232.485 410.074,233.285C401.794,233.527 395.21,232.076 388.188,227.688L385,226C381.931,227.121 379.447,229.035 376.84,230.977L374.451,232.748L371.938,234.625L366.785,238.449L364.282,240.31C361.493,242.37 358.69,244.413 355.875,246.438C351.165,249.851 346.565,253.394 342,257C344.67,260.582 347.272,263.147 350.938,265.688C355.178,268.688 359.334,271.757 363.438,274.938L365.072,276.194C367.852,278.327 370.612,280.487 373.352,282.672L376.562,285.188L379.442,287.481C381.795,289.191 381.795,289.191 384.024,288.926C386.487,287.772 388.758,286.446 391.063,285C398.788,280.168 406.938,279.627 415.863,281.649C424.847,284.918 430.747,290.563 435.09,298.985C438.38,306.268 438.358,316.483 436.059,324.133C434.896,326.529 433.538,328.826 432,331L430.836,332.758C426.301,338.898 419.394,342.622 412,344C403.123,344.903 395.195,343.496 387.707,338.457C382.132,333.887 377.412,328.212 376,321C376.054,319.514 376.166,318.03 376.325,316.55C377.358,306.757 377.358,306.757 373.789,298.035C370.639,295.749 367.408,293.881 364,292C361.952,290.473 359.931,288.91 357.938,287.313C350.076,281.204 342.023,275.35 333.992,269.467C332,268 332,268 330.152,266.344C327.206,264.504 324.942,264.567 321.485,264.488L317.695,264.381L313.75,264.313L309.758,264.209C306.506,264.127 303.253,264.057 300,264L299.675,265.804C297.78,275.381 292.11,282.543 284,288C275.677,293.05 264.19,293.656 254.765,291.485L253,291L252.117,292.44C249.845,296.113 247.514,299.695 245.007,303.212C235.23,317.753 236.693,329.217 239.813,345.875C240.207,348.237 240.594,350.601 240.975,352.965C241.673,357.271 242.409,361.57 243.183,365.863C243.833,369.624 244.2,373.17 244,377L247.938,377.688C257.1,379.773 263.586,384.35 269,392C274.48,401.327 275.578,411.382 273.387,421.961C270.162,430.969 263.669,437.869 255.137,442.071C246.254,445.935 236.607,446.451 227.313,443.563C219.193,440.203 212.083,434.087 208.673,425.883L208,424L206.75,420.75C204.62,410.101 205.907,400.883 211.473,391.524C216.1,384.98 221.943,381.529 229,378C229.28,367.959 228.48,358.501 227,348.563C226.619,345.961 226.246,343.358 225.875,340.754L225.367,337.327C224.985,333.857 224.938,330.487 225,327C212.861,332.322 200.724,337.65 188.625,343.063L186.109,344.182L183.789,345.222L181.78,346.122C179.737,347.082 179.737,347.082 177,349C176.788,352.217 176.788,352.217 177.063,355.938C177.316,365.004 175.592,372.19 169.813,379.313C162.318,387.128 154.533,390.969 143.688,391.375C134.249,391.223 126.17,387.784 119.223,381.355C112.973,374.868 109.868,367.456 109.563,358.438C110.011,348.598 113.018,341.036 120,334C129.144,326.574 138.344,324.914 150,325C156.321,326.004 161.126,328.955 166,333L166,335C170.933,336.711 174.362,334.93 178.836,332.844L181.128,331.814C183.55,330.722 185.962,329.611 188.375,328.5C189.959,327.783 191.544,327.067 193.129,326.352C199.256,323.589 205.36,320.773 211.439,317.906L213.539,316.916C214.841,316.3 216.141,315.68 217.439,315.056C221.78,313 221.78,313 224,313C224.41,311.906 224.41,311.906 224.826,310.789C225.951,308.116 227.236,305.829 228.786,303.383L230.393,300.793C231.504,299.018 232.621,297.248 233.744,295.481C236.742,290.625 239.08,286.797 239,281.001C237.979,278.786 237.979,278.786 236.25,277.063C229.465,268.763 228.99,260.617 230,250C231.662,243.344 235.164,237.628 239,232C237.668,229.916 236.335,227.833 235,225.75L233.903,224.031C233.096,222.774 232.279,221.522 231.453,220.277C230.371,218.57 229.338,216.833 228.355,215.067C223.302,206.537 218.2,203.175 209.125,199.5C207.899,198.973 206.675,198.442 205.452,197.908C202.925,196.808 200.391,195.722 197.851,194.651C191.58,191.986 185.424,189.068 179.251,186.188C177.069,185.18 174.886,184.173 172.703,183.168L169.943,181.895L168,181L166.382,182.234L164.235,183.86L162.116,185.468C159.192,187.585 156.179,189.288 153,191L151.239,192.082C145.244,194.541 136.989,193.831 130.852,192.125C120.993,187.928 112.804,180.809 108.688,170.813C106.793,160.303 107.588,151.543 113.625,142.59C118.944,135.953 125.556,131.044 134.107,129.659C144.444,128.586 153.436,129.662 162,136C169.198,142.129 173.438,149.592 174.27,159.074C174.373,166.254 174.373,166.254 173,169L175.02,169.793C183.949,173.409 192.777,177.288 201.356,181.672C204.836,183.42 208.351,185.092 211.876,186.75L213.825,187.678C216.861,189.1 219.736,190.255 223,191L223.147,188.42C223.809,177.597 224.897,166.841 226.063,156.063L226.627,150.776C227.082,146.516 227.54,142.258 228,138L226.2,137.478C218.014,134.955 213.064,130.708 207.625,124.125C202.872,114.983 201.554,105.886 204.125,95.875C207.582,85.536 215.473,78.764 225,74C236.559,70.848 249.412,73.109 258.887,80.465Z" style="fill:rgb(243,243,243);fill-rule:nonzero;"/>
        </g>
    </g>
</svg>
